M48
; DRILL file {KiCad (6.0.9)} date Mon Nov  6 14:53:35 2023
; FORMAT={-:-/ absolute / metric / decimal}
; #@! TF.CreationDate,2023-11-06T14:53:35+05:30
; #@! TF.GenerationSoftware,Kicad,Pcbnew,(6.0.9)
; #@! TF.FileFunction,MixedPlating,1,2
FMAT,2
METRIC
; #@! TA.AperFunction,Plated,PTH,ViaDrill
T1C0.300
; #@! TA.AperFunction,Plated,PTH,ViaDrill
T2C0.400
; #@! TA.AperFunction,Plated,PTH,ComponentDrill
T3C0.550
; #@! TA.AperFunction,Plated,PTH,ComponentDrill
T4C0.850
; #@! TA.AperFunction,Plated,PTH,ComponentDrill
T5C1.000
; #@! TA.AperFunction,NonPlated,NPTH,ComponentDrill
T6C0.800
; #@! TA.AperFunction,NonPlated,NPTH,ComponentDrill
T7C0.900
; #@! TA.AperFunction,NonPlated,NPTH,ComponentDrill
T8C2.200
%
G90
G05
T1
X141.7Y-91.8
X144.0Y-85.3
X146.2Y-85.85
X146.2Y-88.459
X147.35Y-96.9
X147.4Y-93.625
X149.975Y-85.3
X152.475Y-89.75
X152.8Y-86.175
X152.99Y-100.5
X154.05Y-95.25
X154.439Y-100.5
X156.725Y-97.875
X157.25Y-91.625
X158.219Y-97.85
X162.05Y-86.95
X169.875Y-86.3
T2
X138.825Y-84.125
X167.25Y-92.75
X167.25Y-94.0
X167.5Y-97.2
X168.4Y-97.2
X171.95Y-95.7
X176.325Y-94.15
T5
X146.32Y-75.6
X148.86Y-75.6
X151.2Y-102.9
X151.4Y-75.6
X153.74Y-102.9
X153.94Y-75.6
X156.28Y-102.9
X158.82Y-102.9
X160.66Y-75.6
X163.2Y-75.6
X165.74Y-75.6
X168.28Y-75.6
T6
X172.945Y-85.105
X172.945Y-90.105
T7
X135.545Y-84.9
X135.545Y-87.9
T8
X136.5Y-76.0
X136.5Y-102.0
X174.75Y-76.0
X174.75Y-102.0
T3
G00X175.37Y-83.73
M15
G01X176.02Y-83.73
M16
G05
G00X175.37Y-91.48
M15
G01X176.02Y-91.48
M16
G05
T4
G00X171.62Y-83.88
M15
G01X172.17Y-83.88
M16
G05
G00X171.62Y-91.33
M15
G01X172.17Y-91.33
M16
G05
T0
M30
