%TF.GenerationSoftware,KiCad,Pcbnew,(6.0.9)*%
%TF.CreationDate,2023-11-06T14:53:44+05:30*%
%TF.ProjectId,Stm32 Tutorial,53746d33-3220-4547-9574-6f7269616c2e,rev?*%
%TF.SameCoordinates,Original*%
%TF.FileFunction,Legend,Bot*%
%TF.FilePolarity,Positive*%
%FSLAX46Y46*%
G04 Gerber Fmt 4.6, Leading zero omitted, Abs format (unit mm)*
G04 Created by KiCad (PCBNEW (6.0.9)) date 2023-11-06 14:53:44*
%MOMM*%
%LPD*%
G01*
G04 APERTURE LIST*
%ADD10C,0.150000*%
G04 APERTURE END LIST*
D10*
X172073809Y-99927380D02*
X171740476Y-100927380D01*
X171407142Y-99927380D01*
X170692857Y-100879761D02*
X170788095Y-100927380D01*
X170978571Y-100927380D01*
X171073809Y-100879761D01*
X171121428Y-100784523D01*
X171121428Y-100403571D01*
X171073809Y-100308333D01*
X170978571Y-100260714D01*
X170788095Y-100260714D01*
X170692857Y-100308333D01*
X170645238Y-100403571D01*
X170645238Y-100498809D01*
X171121428Y-100594047D01*
X170216666Y-100927380D02*
X170216666Y-100260714D01*
X170216666Y-100451190D02*
X170169047Y-100355952D01*
X170121428Y-100308333D01*
X170026190Y-100260714D01*
X169930952Y-100260714D01*
X167550000Y-100927380D02*
X168121428Y-100927380D01*
X167835714Y-100927380D02*
X167835714Y-99927380D01*
X167930952Y-100070238D01*
X168026190Y-100165476D01*
X168121428Y-100213095D01*
X167121428Y-100832142D02*
X167073809Y-100879761D01*
X167121428Y-100927380D01*
X167169047Y-100879761D01*
X167121428Y-100832142D01*
X167121428Y-100927380D01*
X166454761Y-99927380D02*
X166359523Y-99927380D01*
X166264285Y-99975000D01*
X166216666Y-100022619D01*
X166169047Y-100117857D01*
X166121428Y-100308333D01*
X166121428Y-100546428D01*
X166169047Y-100736904D01*
X166216666Y-100832142D01*
X166264285Y-100879761D01*
X166359523Y-100927380D01*
X166454761Y-100927380D01*
X166550000Y-100879761D01*
X166597619Y-100832142D01*
X166645238Y-100736904D01*
X166692857Y-100546428D01*
X166692857Y-100308333D01*
X166645238Y-100117857D01*
X166597619Y-100022619D01*
X166550000Y-99975000D01*
X166454761Y-99927380D01*
M02*
