%TF.GenerationSoftware,KiCad,Pcbnew,(6.0.9)*%
%TF.CreationDate,2023-11-06T14:53:44+05:30*%
%TF.ProjectId,Stm32 Tutorial,53746d33-3220-4547-9574-6f7269616c2e,rev?*%
%TF.SameCoordinates,Original*%
%TF.FileFunction,Legend,Top*%
%TF.FilePolarity,Positive*%
%FSLAX46Y46*%
G04 Gerber Fmt 4.6, Leading zero omitted, Abs format (unit mm)*
G04 Created by KiCad (PCBNEW (6.0.9)) date 2023-11-06 14:53:44*
%MOMM*%
%LPD*%
G01*
G04 APERTURE LIST*
%ADD10C,0.150000*%
%ADD11C,0.200000*%
%ADD12C,0.120000*%
G04 APERTURE END LIST*
D10*
X173013095Y-81027380D02*
X173013095Y-81836904D01*
X173060714Y-81932142D01*
X173108333Y-81979761D01*
X173203571Y-82027380D01*
X173394047Y-82027380D01*
X173489285Y-81979761D01*
X173536904Y-81932142D01*
X173584523Y-81836904D01*
X173584523Y-81027380D01*
X174013095Y-81979761D02*
X174155952Y-82027380D01*
X174394047Y-82027380D01*
X174489285Y-81979761D01*
X174536904Y-81932142D01*
X174584523Y-81836904D01*
X174584523Y-81741666D01*
X174536904Y-81646428D01*
X174489285Y-81598809D01*
X174394047Y-81551190D01*
X174203571Y-81503571D01*
X174108333Y-81455952D01*
X174060714Y-81408333D01*
X174013095Y-81313095D01*
X174013095Y-81217857D01*
X174060714Y-81122619D01*
X174108333Y-81075000D01*
X174203571Y-81027380D01*
X174441666Y-81027380D01*
X174584523Y-81075000D01*
X175346428Y-81503571D02*
X175489285Y-81551190D01*
X175536904Y-81598809D01*
X175584523Y-81694047D01*
X175584523Y-81836904D01*
X175536904Y-81932142D01*
X175489285Y-81979761D01*
X175394047Y-82027380D01*
X175013095Y-82027380D01*
X175013095Y-81027380D01*
X175346428Y-81027380D01*
X175441666Y-81075000D01*
X175489285Y-81122619D01*
X175536904Y-81217857D01*
X175536904Y-81313095D01*
X175489285Y-81408333D01*
X175441666Y-81455952D01*
X175346428Y-81503571D01*
X175013095Y-81503571D01*
X175680952Y-96327380D02*
X175871428Y-96327380D01*
X175966666Y-96375000D01*
X176061904Y-96470238D01*
X176109523Y-96660714D01*
X176109523Y-96994047D01*
X176061904Y-97184523D01*
X175966666Y-97279761D01*
X175871428Y-97327380D01*
X175680952Y-97327380D01*
X175585714Y-97279761D01*
X175490476Y-97184523D01*
X175442857Y-96994047D01*
X175442857Y-96660714D01*
X175490476Y-96470238D01*
X175585714Y-96375000D01*
X175680952Y-96327380D01*
X176538095Y-97327380D02*
X176538095Y-96327380D01*
X177109523Y-97327380D01*
X177109523Y-96327380D01*
D11*
X139001190Y-86981845D02*
X139001190Y-87934226D01*
X139239285Y-87696130D02*
X139001190Y-87934226D01*
X138763095Y-87696130D01*
X139358333Y-89946726D02*
X138644047Y-89946726D01*
X139001190Y-89946726D02*
X139001190Y-88696726D01*
X138882142Y-88875297D01*
X138763095Y-88994345D01*
X138644047Y-89053869D01*
D10*
X147098809Y-103477380D02*
X147098809Y-102477380D01*
X147527380Y-102572619D02*
X147575000Y-102525000D01*
X147670238Y-102477380D01*
X147908333Y-102477380D01*
X148003571Y-102525000D01*
X148051190Y-102572619D01*
X148098809Y-102667857D01*
X148098809Y-102763095D01*
X148051190Y-102905952D01*
X147479761Y-103477380D01*
X148098809Y-103477380D01*
X149098809Y-103382142D02*
X149051190Y-103429761D01*
X148908333Y-103477380D01*
X148813095Y-103477380D01*
X148670238Y-103429761D01*
X148575000Y-103334523D01*
X148527380Y-103239285D01*
X148479761Y-103048809D01*
X148479761Y-102905952D01*
X148527380Y-102715476D01*
X148575000Y-102620238D01*
X148670238Y-102525000D01*
X148813095Y-102477380D01*
X148908333Y-102477380D01*
X149051190Y-102525000D01*
X149098809Y-102572619D01*
X134392857Y-92353571D02*
X134535714Y-92401190D01*
X134583333Y-92448809D01*
X134630952Y-92544047D01*
X134630952Y-92686904D01*
X134583333Y-92782142D01*
X134535714Y-92829761D01*
X134440476Y-92877380D01*
X134059523Y-92877380D01*
X134059523Y-91877380D01*
X134392857Y-91877380D01*
X134488095Y-91925000D01*
X134535714Y-91972619D01*
X134583333Y-92067857D01*
X134583333Y-92163095D01*
X134535714Y-92258333D01*
X134488095Y-92305952D01*
X134392857Y-92353571D01*
X134059523Y-92353571D01*
X135250000Y-91877380D02*
X135440476Y-91877380D01*
X135535714Y-91925000D01*
X135630952Y-92020238D01*
X135678571Y-92210714D01*
X135678571Y-92544047D01*
X135630952Y-92734523D01*
X135535714Y-92829761D01*
X135440476Y-92877380D01*
X135250000Y-92877380D01*
X135154761Y-92829761D01*
X135059523Y-92734523D01*
X135011904Y-92544047D01*
X135011904Y-92210714D01*
X135059523Y-92020238D01*
X135154761Y-91925000D01*
X135250000Y-91877380D01*
X136297619Y-91877380D02*
X136488095Y-91877380D01*
X136583333Y-91925000D01*
X136678571Y-92020238D01*
X136726190Y-92210714D01*
X136726190Y-92544047D01*
X136678571Y-92734523D01*
X136583333Y-92829761D01*
X136488095Y-92877380D01*
X136297619Y-92877380D01*
X136202380Y-92829761D01*
X136107142Y-92734523D01*
X136059523Y-92544047D01*
X136059523Y-92210714D01*
X136107142Y-92020238D01*
X136202380Y-91925000D01*
X136297619Y-91877380D01*
X137011904Y-91877380D02*
X137583333Y-91877380D01*
X137297619Y-92877380D02*
X137297619Y-91877380D01*
X147309523Y-77877380D02*
X147309523Y-78686904D01*
X147357142Y-78782142D01*
X147404761Y-78829761D01*
X147500000Y-78877380D01*
X147690476Y-78877380D01*
X147785714Y-78829761D01*
X147833333Y-78782142D01*
X147880952Y-78686904D01*
X147880952Y-77877380D01*
X148309523Y-78591666D02*
X148785714Y-78591666D01*
X148214285Y-78877380D02*
X148547619Y-77877380D01*
X148880952Y-78877380D01*
X149785714Y-78877380D02*
X149452380Y-78401190D01*
X149214285Y-78877380D02*
X149214285Y-77877380D01*
X149595238Y-77877380D01*
X149690476Y-77925000D01*
X149738095Y-77972619D01*
X149785714Y-78067857D01*
X149785714Y-78210714D01*
X149738095Y-78305952D01*
X149690476Y-78353571D01*
X149595238Y-78401190D01*
X149214285Y-78401190D01*
X150071428Y-77877380D02*
X150642857Y-77877380D01*
X150357142Y-78877380D02*
X150357142Y-77877380D01*
X150976190Y-78496428D02*
X151738095Y-78496428D01*
X152738095Y-78877380D02*
X152166666Y-78877380D01*
X152452380Y-78877380D02*
X152452380Y-77877380D01*
X152357142Y-78020238D01*
X152261904Y-78115476D01*
X152166666Y-78163095D01*
X163192857Y-78904761D02*
X163335714Y-78952380D01*
X163573809Y-78952380D01*
X163669047Y-78904761D01*
X163716666Y-78857142D01*
X163764285Y-78761904D01*
X163764285Y-78666666D01*
X163716666Y-78571428D01*
X163669047Y-78523809D01*
X163573809Y-78476190D01*
X163383333Y-78428571D01*
X163288095Y-78380952D01*
X163240476Y-78333333D01*
X163192857Y-78238095D01*
X163192857Y-78142857D01*
X163240476Y-78047619D01*
X163288095Y-78000000D01*
X163383333Y-77952380D01*
X163621428Y-77952380D01*
X163764285Y-78000000D01*
X164097619Y-77952380D02*
X164335714Y-78952380D01*
X164526190Y-78238095D01*
X164716666Y-78952380D01*
X164954761Y-77952380D01*
X165335714Y-78952380D02*
X165335714Y-77952380D01*
X165573809Y-77952380D01*
X165716666Y-78000000D01*
X165811904Y-78095238D01*
X165859523Y-78190476D01*
X165907142Y-78380952D01*
X165907142Y-78523809D01*
X165859523Y-78714285D01*
X165811904Y-78809523D01*
X165716666Y-78904761D01*
X165573809Y-78952380D01*
X165335714Y-78952380D01*
%TO.C,U1*%
X169813095Y-100427380D02*
X169813095Y-101236904D01*
X169860714Y-101332142D01*
X169908333Y-101379761D01*
X170003571Y-101427380D01*
X170194047Y-101427380D01*
X170289285Y-101379761D01*
X170336904Y-101332142D01*
X170384523Y-101236904D01*
X170384523Y-100427380D01*
X171384523Y-101427380D02*
X170813095Y-101427380D01*
X171098809Y-101427380D02*
X171098809Y-100427380D01*
X171003571Y-100570238D01*
X170908333Y-100665476D01*
X170813095Y-100713095D01*
%TO.C,R5*%
X167283333Y-85602380D02*
X166950000Y-85126190D01*
X166711904Y-85602380D02*
X166711904Y-84602380D01*
X167092857Y-84602380D01*
X167188095Y-84650000D01*
X167235714Y-84697619D01*
X167283333Y-84792857D01*
X167283333Y-84935714D01*
X167235714Y-85030952D01*
X167188095Y-85078571D01*
X167092857Y-85126190D01*
X166711904Y-85126190D01*
X168188095Y-84602380D02*
X167711904Y-84602380D01*
X167664285Y-85078571D01*
X167711904Y-85030952D01*
X167807142Y-84983333D01*
X168045238Y-84983333D01*
X168140476Y-85030952D01*
X168188095Y-85078571D01*
X168235714Y-85173809D01*
X168235714Y-85411904D01*
X168188095Y-85507142D01*
X168140476Y-85554761D01*
X168045238Y-85602380D01*
X167807142Y-85602380D01*
X167711904Y-85554761D01*
X167664285Y-85507142D01*
%TO.C,C6*%
X148833333Y-84487142D02*
X148785714Y-84534761D01*
X148642857Y-84582380D01*
X148547619Y-84582380D01*
X148404761Y-84534761D01*
X148309523Y-84439523D01*
X148261904Y-84344285D01*
X148214285Y-84153809D01*
X148214285Y-84010952D01*
X148261904Y-83820476D01*
X148309523Y-83725238D01*
X148404761Y-83630000D01*
X148547619Y-83582380D01*
X148642857Y-83582380D01*
X148785714Y-83630000D01*
X148833333Y-83677619D01*
X149690476Y-83582380D02*
X149500000Y-83582380D01*
X149404761Y-83630000D01*
X149357142Y-83677619D01*
X149261904Y-83820476D01*
X149214285Y-84010952D01*
X149214285Y-84391904D01*
X149261904Y-84487142D01*
X149309523Y-84534761D01*
X149404761Y-84582380D01*
X149595238Y-84582380D01*
X149690476Y-84534761D01*
X149738095Y-84487142D01*
X149785714Y-84391904D01*
X149785714Y-84153809D01*
X149738095Y-84058571D01*
X149690476Y-84010952D01*
X149595238Y-83963333D01*
X149404761Y-83963333D01*
X149309523Y-84010952D01*
X149261904Y-84058571D01*
X149214285Y-84153809D01*
%TO.C,C11*%
X148032142Y-88557142D02*
X147984523Y-88604761D01*
X147841666Y-88652380D01*
X147746428Y-88652380D01*
X147603571Y-88604761D01*
X147508333Y-88509523D01*
X147460714Y-88414285D01*
X147413095Y-88223809D01*
X147413095Y-88080952D01*
X147460714Y-87890476D01*
X147508333Y-87795238D01*
X147603571Y-87700000D01*
X147746428Y-87652380D01*
X147841666Y-87652380D01*
X147984523Y-87700000D01*
X148032142Y-87747619D01*
X148984523Y-88652380D02*
X148413095Y-88652380D01*
X148698809Y-88652380D02*
X148698809Y-87652380D01*
X148603571Y-87795238D01*
X148508333Y-87890476D01*
X148413095Y-87938095D01*
X149936904Y-88652380D02*
X149365476Y-88652380D01*
X149651190Y-88652380D02*
X149651190Y-87652380D01*
X149555952Y-87795238D01*
X149460714Y-87890476D01*
X149365476Y-87938095D01*
%TO.C,R4*%
X142758333Y-82302380D02*
X142425000Y-81826190D01*
X142186904Y-82302380D02*
X142186904Y-81302380D01*
X142567857Y-81302380D01*
X142663095Y-81350000D01*
X142710714Y-81397619D01*
X142758333Y-81492857D01*
X142758333Y-81635714D01*
X142710714Y-81730952D01*
X142663095Y-81778571D01*
X142567857Y-81826190D01*
X142186904Y-81826190D01*
X143615476Y-81635714D02*
X143615476Y-82302380D01*
X143377380Y-81254761D02*
X143139285Y-81969047D01*
X143758333Y-81969047D01*
%TO.C,C1*%
X164383333Y-91557142D02*
X164335714Y-91604761D01*
X164192857Y-91652380D01*
X164097619Y-91652380D01*
X163954761Y-91604761D01*
X163859523Y-91509523D01*
X163811904Y-91414285D01*
X163764285Y-91223809D01*
X163764285Y-91080952D01*
X163811904Y-90890476D01*
X163859523Y-90795238D01*
X163954761Y-90700000D01*
X164097619Y-90652380D01*
X164192857Y-90652380D01*
X164335714Y-90700000D01*
X164383333Y-90747619D01*
X165335714Y-91652380D02*
X164764285Y-91652380D01*
X165050000Y-91652380D02*
X165050000Y-90652380D01*
X164954761Y-90795238D01*
X164859523Y-90890476D01*
X164764285Y-90938095D01*
%TO.C,R1*%
X172833333Y-94677380D02*
X172500000Y-94201190D01*
X172261904Y-94677380D02*
X172261904Y-93677380D01*
X172642857Y-93677380D01*
X172738095Y-93725000D01*
X172785714Y-93772619D01*
X172833333Y-93867857D01*
X172833333Y-94010714D01*
X172785714Y-94105952D01*
X172738095Y-94153571D01*
X172642857Y-94201190D01*
X172261904Y-94201190D01*
X173785714Y-94677380D02*
X173214285Y-94677380D01*
X173500000Y-94677380D02*
X173500000Y-93677380D01*
X173404761Y-93820238D01*
X173309523Y-93915476D01*
X173214285Y-93963095D01*
%TO.C,C3*%
X145308333Y-85232142D02*
X145260714Y-85279761D01*
X145117857Y-85327380D01*
X145022619Y-85327380D01*
X144879761Y-85279761D01*
X144784523Y-85184523D01*
X144736904Y-85089285D01*
X144689285Y-84898809D01*
X144689285Y-84755952D01*
X144736904Y-84565476D01*
X144784523Y-84470238D01*
X144879761Y-84375000D01*
X145022619Y-84327380D01*
X145117857Y-84327380D01*
X145260714Y-84375000D01*
X145308333Y-84422619D01*
X145641666Y-84327380D02*
X146260714Y-84327380D01*
X145927380Y-84708333D01*
X146070238Y-84708333D01*
X146165476Y-84755952D01*
X146213095Y-84803571D01*
X146260714Y-84898809D01*
X146260714Y-85136904D01*
X146213095Y-85232142D01*
X146165476Y-85279761D01*
X146070238Y-85327380D01*
X145784523Y-85327380D01*
X145689285Y-85279761D01*
X145641666Y-85232142D01*
%TO.C,C12*%
X144757142Y-94982142D02*
X144709523Y-95029761D01*
X144566666Y-95077380D01*
X144471428Y-95077380D01*
X144328571Y-95029761D01*
X144233333Y-94934523D01*
X144185714Y-94839285D01*
X144138095Y-94648809D01*
X144138095Y-94505952D01*
X144185714Y-94315476D01*
X144233333Y-94220238D01*
X144328571Y-94125000D01*
X144471428Y-94077380D01*
X144566666Y-94077380D01*
X144709523Y-94125000D01*
X144757142Y-94172619D01*
X145709523Y-95077380D02*
X145138095Y-95077380D01*
X145423809Y-95077380D02*
X145423809Y-94077380D01*
X145328571Y-94220238D01*
X145233333Y-94315476D01*
X145138095Y-94363095D01*
X146090476Y-94172619D02*
X146138095Y-94125000D01*
X146233333Y-94077380D01*
X146471428Y-94077380D01*
X146566666Y-94125000D01*
X146614285Y-94172619D01*
X146661904Y-94267857D01*
X146661904Y-94363095D01*
X146614285Y-94505952D01*
X146042857Y-95077380D01*
X146661904Y-95077380D01*
%TO.C,C8*%
X160833333Y-84857142D02*
X160785714Y-84904761D01*
X160642857Y-84952380D01*
X160547619Y-84952380D01*
X160404761Y-84904761D01*
X160309523Y-84809523D01*
X160261904Y-84714285D01*
X160214285Y-84523809D01*
X160214285Y-84380952D01*
X160261904Y-84190476D01*
X160309523Y-84095238D01*
X160404761Y-84000000D01*
X160547619Y-83952380D01*
X160642857Y-83952380D01*
X160785714Y-84000000D01*
X160833333Y-84047619D01*
X161404761Y-84380952D02*
X161309523Y-84333333D01*
X161261904Y-84285714D01*
X161214285Y-84190476D01*
X161214285Y-84142857D01*
X161261904Y-84047619D01*
X161309523Y-84000000D01*
X161404761Y-83952380D01*
X161595238Y-83952380D01*
X161690476Y-84000000D01*
X161738095Y-84047619D01*
X161785714Y-84142857D01*
X161785714Y-84190476D01*
X161738095Y-84285714D01*
X161690476Y-84333333D01*
X161595238Y-84380952D01*
X161404761Y-84380952D01*
X161309523Y-84428571D01*
X161261904Y-84476190D01*
X161214285Y-84571428D01*
X161214285Y-84761904D01*
X161261904Y-84857142D01*
X161309523Y-84904761D01*
X161404761Y-84952380D01*
X161595238Y-84952380D01*
X161690476Y-84904761D01*
X161738095Y-84857142D01*
X161785714Y-84761904D01*
X161785714Y-84571428D01*
X161738095Y-84476190D01*
X161690476Y-84428571D01*
X161595238Y-84380952D01*
%TO.C,R3*%
X152098333Y-99427380D02*
X151765000Y-98951190D01*
X151526904Y-99427380D02*
X151526904Y-98427380D01*
X151907857Y-98427380D01*
X152003095Y-98475000D01*
X152050714Y-98522619D01*
X152098333Y-98617857D01*
X152098333Y-98760714D01*
X152050714Y-98855952D01*
X152003095Y-98903571D01*
X151907857Y-98951190D01*
X151526904Y-98951190D01*
X152431666Y-98427380D02*
X153050714Y-98427380D01*
X152717380Y-98808333D01*
X152860238Y-98808333D01*
X152955476Y-98855952D01*
X153003095Y-98903571D01*
X153050714Y-98998809D01*
X153050714Y-99236904D01*
X153003095Y-99332142D01*
X152955476Y-99379761D01*
X152860238Y-99427380D01*
X152574523Y-99427380D01*
X152479285Y-99379761D01*
X152431666Y-99332142D01*
%TO.C,U2*%
X157238095Y-82602380D02*
X157238095Y-83411904D01*
X157285714Y-83507142D01*
X157333333Y-83554761D01*
X157428571Y-83602380D01*
X157619047Y-83602380D01*
X157714285Y-83554761D01*
X157761904Y-83507142D01*
X157809523Y-83411904D01*
X157809523Y-82602380D01*
X158238095Y-82697619D02*
X158285714Y-82650000D01*
X158380952Y-82602380D01*
X158619047Y-82602380D01*
X158714285Y-82650000D01*
X158761904Y-82697619D01*
X158809523Y-82792857D01*
X158809523Y-82888095D01*
X158761904Y-83030952D01*
X158190476Y-83602380D01*
X158809523Y-83602380D01*
%TO.C,C10*%
X159862142Y-96232142D02*
X159814523Y-96279761D01*
X159671666Y-96327380D01*
X159576428Y-96327380D01*
X159433571Y-96279761D01*
X159338333Y-96184523D01*
X159290714Y-96089285D01*
X159243095Y-95898809D01*
X159243095Y-95755952D01*
X159290714Y-95565476D01*
X159338333Y-95470238D01*
X159433571Y-95375000D01*
X159576428Y-95327380D01*
X159671666Y-95327380D01*
X159814523Y-95375000D01*
X159862142Y-95422619D01*
X160814523Y-96327380D02*
X160243095Y-96327380D01*
X160528809Y-96327380D02*
X160528809Y-95327380D01*
X160433571Y-95470238D01*
X160338333Y-95565476D01*
X160243095Y-95613095D01*
X161433571Y-95327380D02*
X161528809Y-95327380D01*
X161624047Y-95375000D01*
X161671666Y-95422619D01*
X161719285Y-95517857D01*
X161766904Y-95708333D01*
X161766904Y-95946428D01*
X161719285Y-96136904D01*
X161671666Y-96232142D01*
X161624047Y-96279761D01*
X161528809Y-96327380D01*
X161433571Y-96327380D01*
X161338333Y-96279761D01*
X161290714Y-96232142D01*
X161243095Y-96136904D01*
X161195476Y-95946428D01*
X161195476Y-95708333D01*
X161243095Y-95517857D01*
X161290714Y-95422619D01*
X161338333Y-95375000D01*
X161433571Y-95327380D01*
%TO.C,C9*%
X154233333Y-83407142D02*
X154185714Y-83454761D01*
X154042857Y-83502380D01*
X153947619Y-83502380D01*
X153804761Y-83454761D01*
X153709523Y-83359523D01*
X153661904Y-83264285D01*
X153614285Y-83073809D01*
X153614285Y-82930952D01*
X153661904Y-82740476D01*
X153709523Y-82645238D01*
X153804761Y-82550000D01*
X153947619Y-82502380D01*
X154042857Y-82502380D01*
X154185714Y-82550000D01*
X154233333Y-82597619D01*
X154709523Y-83502380D02*
X154900000Y-83502380D01*
X154995238Y-83454761D01*
X155042857Y-83407142D01*
X155138095Y-83264285D01*
X155185714Y-83073809D01*
X155185714Y-82692857D01*
X155138095Y-82597619D01*
X155090476Y-82550000D01*
X154995238Y-82502380D01*
X154804761Y-82502380D01*
X154709523Y-82550000D01*
X154661904Y-82597619D01*
X154614285Y-82692857D01*
X154614285Y-82930952D01*
X154661904Y-83026190D01*
X154709523Y-83073809D01*
X154804761Y-83121428D01*
X154995238Y-83121428D01*
X155090476Y-83073809D01*
X155138095Y-83026190D01*
X155185714Y-82930952D01*
%TO.C,C5*%
X153833333Y-79927142D02*
X153785714Y-79974761D01*
X153642857Y-80022380D01*
X153547619Y-80022380D01*
X153404761Y-79974761D01*
X153309523Y-79879523D01*
X153261904Y-79784285D01*
X153214285Y-79593809D01*
X153214285Y-79450952D01*
X153261904Y-79260476D01*
X153309523Y-79165238D01*
X153404761Y-79070000D01*
X153547619Y-79022380D01*
X153642857Y-79022380D01*
X153785714Y-79070000D01*
X153833333Y-79117619D01*
X154738095Y-79022380D02*
X154261904Y-79022380D01*
X154214285Y-79498571D01*
X154261904Y-79450952D01*
X154357142Y-79403333D01*
X154595238Y-79403333D01*
X154690476Y-79450952D01*
X154738095Y-79498571D01*
X154785714Y-79593809D01*
X154785714Y-79831904D01*
X154738095Y-79927142D01*
X154690476Y-79974761D01*
X154595238Y-80022380D01*
X154357142Y-80022380D01*
X154261904Y-79974761D01*
X154214285Y-79927142D01*
%TO.C,C7*%
X146483333Y-91807142D02*
X146435714Y-91854761D01*
X146292857Y-91902380D01*
X146197619Y-91902380D01*
X146054761Y-91854761D01*
X145959523Y-91759523D01*
X145911904Y-91664285D01*
X145864285Y-91473809D01*
X145864285Y-91330952D01*
X145911904Y-91140476D01*
X145959523Y-91045238D01*
X146054761Y-90950000D01*
X146197619Y-90902380D01*
X146292857Y-90902380D01*
X146435714Y-90950000D01*
X146483333Y-90997619D01*
X146816666Y-90902380D02*
X147483333Y-90902380D01*
X147054761Y-91902380D01*
%TO.C,D1*%
X175236904Y-99377380D02*
X175236904Y-98377380D01*
X175475000Y-98377380D01*
X175617857Y-98425000D01*
X175713095Y-98520238D01*
X175760714Y-98615476D01*
X175808333Y-98805952D01*
X175808333Y-98948809D01*
X175760714Y-99139285D01*
X175713095Y-99234523D01*
X175617857Y-99329761D01*
X175475000Y-99377380D01*
X175236904Y-99377380D01*
X176760714Y-99377380D02*
X176189285Y-99377380D01*
X176475000Y-99377380D02*
X176475000Y-98377380D01*
X176379761Y-98520238D01*
X176284523Y-98615476D01*
X176189285Y-98663095D01*
%TO.C,C2*%
X170358333Y-94732142D02*
X170310714Y-94779761D01*
X170167857Y-94827380D01*
X170072619Y-94827380D01*
X169929761Y-94779761D01*
X169834523Y-94684523D01*
X169786904Y-94589285D01*
X169739285Y-94398809D01*
X169739285Y-94255952D01*
X169786904Y-94065476D01*
X169834523Y-93970238D01*
X169929761Y-93875000D01*
X170072619Y-93827380D01*
X170167857Y-93827380D01*
X170310714Y-93875000D01*
X170358333Y-93922619D01*
X170739285Y-93922619D02*
X170786904Y-93875000D01*
X170882142Y-93827380D01*
X171120238Y-93827380D01*
X171215476Y-93875000D01*
X171263095Y-93922619D01*
X171310714Y-94017857D01*
X171310714Y-94113095D01*
X171263095Y-94255952D01*
X170691666Y-94827380D01*
X171310714Y-94827380D01*
%TO.C,C13*%
X144632142Y-96607142D02*
X144584523Y-96654761D01*
X144441666Y-96702380D01*
X144346428Y-96702380D01*
X144203571Y-96654761D01*
X144108333Y-96559523D01*
X144060714Y-96464285D01*
X144013095Y-96273809D01*
X144013095Y-96130952D01*
X144060714Y-95940476D01*
X144108333Y-95845238D01*
X144203571Y-95750000D01*
X144346428Y-95702380D01*
X144441666Y-95702380D01*
X144584523Y-95750000D01*
X144632142Y-95797619D01*
X145584523Y-96702380D02*
X145013095Y-96702380D01*
X145298809Y-96702380D02*
X145298809Y-95702380D01*
X145203571Y-95845238D01*
X145108333Y-95940476D01*
X145013095Y-95988095D01*
X145917857Y-95702380D02*
X146536904Y-95702380D01*
X146203571Y-96083333D01*
X146346428Y-96083333D01*
X146441666Y-96130952D01*
X146489285Y-96178571D01*
X146536904Y-96273809D01*
X146536904Y-96511904D01*
X146489285Y-96607142D01*
X146441666Y-96654761D01*
X146346428Y-96702380D01*
X146060714Y-96702380D01*
X145965476Y-96654761D01*
X145917857Y-96607142D01*
%TO.C,FB1*%
X149016666Y-97728571D02*
X148683333Y-97728571D01*
X148683333Y-98252380D02*
X148683333Y-97252380D01*
X149159523Y-97252380D01*
X149873809Y-97728571D02*
X150016666Y-97776190D01*
X150064285Y-97823809D01*
X150111904Y-97919047D01*
X150111904Y-98061904D01*
X150064285Y-98157142D01*
X150016666Y-98204761D01*
X149921428Y-98252380D01*
X149540476Y-98252380D01*
X149540476Y-97252380D01*
X149873809Y-97252380D01*
X149969047Y-97300000D01*
X150016666Y-97347619D01*
X150064285Y-97442857D01*
X150064285Y-97538095D01*
X150016666Y-97633333D01*
X149969047Y-97680952D01*
X149873809Y-97728571D01*
X149540476Y-97728571D01*
X151064285Y-98252380D02*
X150492857Y-98252380D01*
X150778571Y-98252380D02*
X150778571Y-97252380D01*
X150683333Y-97395238D01*
X150588095Y-97490476D01*
X150492857Y-97538095D01*
%TO.C,R2*%
X158843333Y-99452380D02*
X158510000Y-98976190D01*
X158271904Y-99452380D02*
X158271904Y-98452380D01*
X158652857Y-98452380D01*
X158748095Y-98500000D01*
X158795714Y-98547619D01*
X158843333Y-98642857D01*
X158843333Y-98785714D01*
X158795714Y-98880952D01*
X158748095Y-98928571D01*
X158652857Y-98976190D01*
X158271904Y-98976190D01*
X159224285Y-98547619D02*
X159271904Y-98500000D01*
X159367142Y-98452380D01*
X159605238Y-98452380D01*
X159700476Y-98500000D01*
X159748095Y-98547619D01*
X159795714Y-98642857D01*
X159795714Y-98738095D01*
X159748095Y-98880952D01*
X159176666Y-99452380D01*
X159795714Y-99452380D01*
%TO.C,C4*%
X152458333Y-97107142D02*
X152410714Y-97154761D01*
X152267857Y-97202380D01*
X152172619Y-97202380D01*
X152029761Y-97154761D01*
X151934523Y-97059523D01*
X151886904Y-96964285D01*
X151839285Y-96773809D01*
X151839285Y-96630952D01*
X151886904Y-96440476D01*
X151934523Y-96345238D01*
X152029761Y-96250000D01*
X152172619Y-96202380D01*
X152267857Y-96202380D01*
X152410714Y-96250000D01*
X152458333Y-96297619D01*
X153315476Y-96535714D02*
X153315476Y-97202380D01*
X153077380Y-96154761D02*
X152839285Y-96869047D01*
X153458333Y-96869047D01*
%TO.C,Y1*%
X140998809Y-85026190D02*
X140998809Y-85502380D01*
X140665476Y-84502380D02*
X140998809Y-85026190D01*
X141332142Y-84502380D01*
X142189285Y-85502380D02*
X141617857Y-85502380D01*
X141903571Y-85502380D02*
X141903571Y-84502380D01*
X141808333Y-84645238D01*
X141713095Y-84740476D01*
X141617857Y-84788095D01*
D12*
%TO.C,U1*%
X168910000Y-94900000D02*
X168910000Y-100910000D01*
X162090000Y-97150000D02*
X162090000Y-100910000D01*
X168910000Y-100910000D02*
X167650000Y-100910000D01*
X162090000Y-100910000D02*
X163350000Y-100910000D01*
%TO.C,R5*%
X167070000Y-87006359D02*
X167070000Y-87313641D01*
X167830000Y-87006359D02*
X167830000Y-87313641D01*
%TO.C,C6*%
X148640000Y-85887836D02*
X148640000Y-85672164D01*
X149360000Y-85887836D02*
X149360000Y-85672164D01*
%TO.C,J2*%
X152470000Y-101570000D02*
X160150000Y-101570000D01*
X152470000Y-104230000D02*
X160150000Y-104230000D01*
X151200000Y-104230000D02*
X149870000Y-104230000D01*
X149870000Y-104230000D02*
X149870000Y-102900000D01*
X152470000Y-104230000D02*
X152470000Y-101570000D01*
X160150000Y-104230000D02*
X160150000Y-101570000D01*
%TO.C,C11*%
X149360000Y-90107836D02*
X149360000Y-89892164D01*
X148640000Y-90107836D02*
X148640000Y-89892164D01*
%TO.C,R4*%
X141336359Y-83380000D02*
X141643641Y-83380000D01*
X141336359Y-82620000D02*
X141643641Y-82620000D01*
%TO.C,C1*%
X164538748Y-92465000D02*
X165061252Y-92465000D01*
X164538748Y-93935000D02*
X165061252Y-93935000D01*
%TO.C,R1*%
X174596359Y-94530000D02*
X174903641Y-94530000D01*
X174596359Y-93770000D02*
X174903641Y-93770000D01*
%TO.C,C3*%
X146560000Y-87257836D02*
X146560000Y-87042164D01*
X145840000Y-87257836D02*
X145840000Y-87042164D01*
%TO.C,C12*%
X147982836Y-94265000D02*
X147767164Y-94265000D01*
X147982836Y-94985000D02*
X147767164Y-94985000D01*
%TO.C,C8*%
X160640000Y-86372164D02*
X160640000Y-86587836D01*
X161360000Y-86372164D02*
X161360000Y-86587836D01*
%TO.C,R3*%
X154418641Y-99355000D02*
X154111359Y-99355000D01*
X154418641Y-98595000D02*
X154111359Y-98595000D01*
%TO.C,J1*%
X152670000Y-76930000D02*
X144990000Y-76930000D01*
X153940000Y-74270000D02*
X155270000Y-74270000D01*
X152670000Y-74270000D02*
X144990000Y-74270000D01*
X144990000Y-74270000D02*
X144990000Y-76930000D01*
X155270000Y-74270000D02*
X155270000Y-75600000D01*
X152670000Y-74270000D02*
X152670000Y-76930000D01*
%TO.C,U2*%
X158610000Y-85390000D02*
X158610000Y-85840000D01*
X158160000Y-92610000D02*
X158610000Y-92610000D01*
X151390000Y-92610000D02*
X151390000Y-92160000D01*
X151840000Y-92610000D02*
X151390000Y-92610000D01*
X151390000Y-85840000D02*
X150100000Y-85840000D01*
X158160000Y-85390000D02*
X158610000Y-85390000D01*
X151390000Y-85390000D02*
X151390000Y-85840000D01*
X158610000Y-92610000D02*
X158610000Y-92160000D01*
X151840000Y-85390000D02*
X151390000Y-85390000D01*
%TO.C,C10*%
X158112836Y-95735000D02*
X157897164Y-95735000D01*
X158112836Y-95015000D02*
X157897164Y-95015000D01*
%TO.C,C9*%
X152392164Y-83360000D02*
X152607836Y-83360000D01*
X152392164Y-82640000D02*
X152607836Y-82640000D01*
%TO.C,C5*%
X152359420Y-81510000D02*
X152640580Y-81510000D01*
X152359420Y-80490000D02*
X152640580Y-80490000D01*
%TO.C,C7*%
X145840000Y-89887836D02*
X145840000Y-89672164D01*
X146560000Y-89887836D02*
X146560000Y-89672164D01*
%TO.C,D1*%
X174985000Y-97837500D02*
X174985000Y-95552500D01*
X174985000Y-95552500D02*
X173515000Y-95552500D01*
X173515000Y-95552500D02*
X173515000Y-97837500D01*
%TO.C,C2*%
X169865000Y-97111252D02*
X169865000Y-96588748D01*
X171335000Y-97111252D02*
X171335000Y-96588748D01*
%TO.C,C13*%
X147957836Y-95640000D02*
X147742164Y-95640000D01*
X147957836Y-96360000D02*
X147742164Y-96360000D01*
%TO.C,FB1*%
X149215000Y-95099721D02*
X149215000Y-95425279D01*
X150235000Y-95099721D02*
X150235000Y-95425279D01*
%TO.C,R2*%
X156856359Y-99380000D02*
X157163641Y-99380000D01*
X156856359Y-98620000D02*
X157163641Y-98620000D01*
%TO.C,SW1*%
X135945000Y-82950000D02*
X135155000Y-82950000D01*
X135155000Y-89850000D02*
X135945000Y-89850000D01*
X136995000Y-87800000D02*
X136995000Y-88000000D01*
X136995000Y-84800000D02*
X136995000Y-86500000D01*
X134145000Y-83550000D02*
X134145000Y-89250000D01*
%TO.C,C4*%
X152517164Y-95635000D02*
X152732836Y-95635000D01*
X152517164Y-94915000D02*
X152732836Y-94915000D01*
D10*
%TO.C,J4*%
X171345000Y-85805000D02*
X171345000Y-84805000D01*
X170920000Y-89405000D02*
X171345000Y-89405000D01*
X177045000Y-91455000D02*
X177495000Y-91455000D01*
X177495000Y-83755000D02*
X177045000Y-83755000D01*
X177045000Y-83455000D02*
X176895000Y-83455000D01*
X176895000Y-91755000D02*
X177045000Y-91755000D01*
X174495000Y-83455000D02*
X173095000Y-83455000D01*
X177045000Y-91755000D02*
X177045000Y-91455000D01*
X177045000Y-83755000D02*
X177045000Y-83455000D01*
X173095000Y-91755000D02*
X174495000Y-91755000D01*
X171345000Y-89405000D02*
X171345000Y-90405000D01*
X170920000Y-88680000D02*
X170920000Y-89405000D01*
D12*
%TO.C,Y1*%
X140600000Y-85900000D02*
X140600000Y-91300000D01*
X145100000Y-85900000D02*
X140600000Y-85900000D01*
%TO.C,J3*%
X167010000Y-76930000D02*
X159330000Y-76930000D01*
X168280000Y-74270000D02*
X169610000Y-74270000D01*
X159330000Y-74270000D02*
X159330000Y-76930000D01*
X167010000Y-74270000D02*
X167010000Y-76930000D01*
X169610000Y-74270000D02*
X169610000Y-75600000D01*
X167010000Y-74270000D02*
X159330000Y-74270000D01*
%TD*%
M02*
