%TF.GenerationSoftware,KiCad,Pcbnew,(6.0.9)*%
%TF.CreationDate,2023-11-06T14:53:44+05:30*%
%TF.ProjectId,Stm32 Tutorial,53746d33-3220-4547-9574-6f7269616c2e,rev?*%
%TF.SameCoordinates,Original*%
%TF.FileFunction,Paste,Top*%
%TF.FilePolarity,Positive*%
%FSLAX46Y46*%
G04 Gerber Fmt 4.6, Leading zero omitted, Abs format (unit mm)*
G04 Created by KiCad (PCBNEW (6.0.9)) date 2023-11-06 14:53:44*
%MOMM*%
%LPD*%
G01*
G04 APERTURE LIST*
G04 Aperture macros list*
%AMRoundRect*
0 Rectangle with rounded corners*
0 $1 Rounding radius*
0 $2 $3 $4 $5 $6 $7 $8 $9 X,Y pos of 4 corners*
0 Add a 4 corners polygon primitive as box body*
4,1,4,$2,$3,$4,$5,$6,$7,$8,$9,$2,$3,0*
0 Add four circle primitives for the rounded corners*
1,1,$1+$1,$2,$3*
1,1,$1+$1,$4,$5*
1,1,$1+$1,$6,$7*
1,1,$1+$1,$8,$9*
0 Add four rect primitives between the rounded corners*
20,1,$1+$1,$2,$3,$4,$5,0*
20,1,$1+$1,$4,$5,$6,$7,0*
20,1,$1+$1,$6,$7,$8,$9,0*
20,1,$1+$1,$8,$9,$2,$3,0*%
G04 Aperture macros list end*
%ADD10R,1.500000X2.000000*%
%ADD11R,3.800000X2.000000*%
%ADD12RoundRect,0.135000X-0.185000X0.135000X-0.185000X-0.135000X0.185000X-0.135000X0.185000X0.135000X0*%
%ADD13RoundRect,0.140000X0.170000X-0.140000X0.170000X0.140000X-0.170000X0.140000X-0.170000X-0.140000X0*%
%ADD14RoundRect,0.135000X-0.135000X-0.185000X0.135000X-0.185000X0.135000X0.185000X-0.135000X0.185000X0*%
%ADD15RoundRect,0.250000X-0.250000X-0.475000X0.250000X-0.475000X0.250000X0.475000X-0.250000X0.475000X0*%
%ADD16RoundRect,0.140000X0.140000X0.170000X-0.140000X0.170000X-0.140000X-0.170000X0.140000X-0.170000X0*%
%ADD17RoundRect,0.140000X-0.170000X0.140000X-0.170000X-0.140000X0.170000X-0.140000X0.170000X0.140000X0*%
%ADD18RoundRect,0.135000X0.135000X0.185000X-0.135000X0.185000X-0.135000X-0.185000X0.135000X-0.185000X0*%
%ADD19RoundRect,0.075000X-0.662500X-0.075000X0.662500X-0.075000X0.662500X0.075000X-0.662500X0.075000X0*%
%ADD20RoundRect,0.075000X-0.075000X-0.662500X0.075000X-0.662500X0.075000X0.662500X-0.075000X0.662500X0*%
%ADD21RoundRect,0.140000X-0.140000X-0.170000X0.140000X-0.170000X0.140000X0.170000X-0.140000X0.170000X0*%
%ADD22RoundRect,0.225000X-0.225000X-0.250000X0.225000X-0.250000X0.225000X0.250000X-0.225000X0.250000X0*%
%ADD23RoundRect,0.218750X-0.256250X0.218750X-0.256250X-0.218750X0.256250X-0.218750X0.256250X0.218750X0*%
%ADD24RoundRect,0.250000X0.475000X-0.250000X0.475000X0.250000X-0.475000X0.250000X-0.475000X-0.250000X0*%
%ADD25R,0.800000X1.000000*%
%ADD26R,1.500000X0.700000*%
%ADD27R,1.300000X0.450000*%
%ADD28R,1.800000X2.100000*%
G04 APERTURE END LIST*
D10*
%TO.C,U1*%
X167800000Y-95850000D03*
X165500000Y-95850000D03*
D11*
X165500000Y-102150000D03*
D10*
X163200000Y-95850000D03*
%TD*%
D12*
%TO.C,R5*%
X167450000Y-86650000D03*
X167450000Y-87670000D03*
%TD*%
D13*
%TO.C,C6*%
X149000000Y-86260000D03*
X149000000Y-85300000D03*
%TD*%
%TO.C,C11*%
X149000000Y-90480000D03*
X149000000Y-89520000D03*
%TD*%
D14*
%TO.C,R4*%
X140980000Y-83000000D03*
X142000000Y-83000000D03*
%TD*%
D15*
%TO.C,C1*%
X163850000Y-93200000D03*
X165750000Y-93200000D03*
%TD*%
D14*
%TO.C,R1*%
X174240000Y-94150000D03*
X175260000Y-94150000D03*
%TD*%
D13*
%TO.C,C3*%
X146200000Y-87630000D03*
X146200000Y-86670000D03*
%TD*%
D16*
%TO.C,C12*%
X148355000Y-94625000D03*
X147395000Y-94625000D03*
%TD*%
D17*
%TO.C,C8*%
X161000000Y-86000000D03*
X161000000Y-86960000D03*
%TD*%
D18*
%TO.C,R3*%
X154775000Y-98975000D03*
X153755000Y-98975000D03*
%TD*%
D19*
%TO.C,U2*%
X150837500Y-86250000D03*
X150837500Y-86750000D03*
X150837500Y-87250000D03*
X150837500Y-87750000D03*
X150837500Y-88250000D03*
X150837500Y-88750000D03*
X150837500Y-89250000D03*
X150837500Y-89750000D03*
X150837500Y-90250000D03*
X150837500Y-90750000D03*
X150837500Y-91250000D03*
X150837500Y-91750000D03*
D20*
X152250000Y-93162500D03*
X152750000Y-93162500D03*
X153250000Y-93162500D03*
X153750000Y-93162500D03*
X154250000Y-93162500D03*
X154750000Y-93162500D03*
X155250000Y-93162500D03*
X155750000Y-93162500D03*
X156250000Y-93162500D03*
X156750000Y-93162500D03*
X157250000Y-93162500D03*
X157750000Y-93162500D03*
D19*
X159162500Y-91750000D03*
X159162500Y-91250000D03*
X159162500Y-90750000D03*
X159162500Y-90250000D03*
X159162500Y-89750000D03*
X159162500Y-89250000D03*
X159162500Y-88750000D03*
X159162500Y-88250000D03*
X159162500Y-87750000D03*
X159162500Y-87250000D03*
X159162500Y-86750000D03*
X159162500Y-86250000D03*
D20*
X157750000Y-84837500D03*
X157250000Y-84837500D03*
X156750000Y-84837500D03*
X156250000Y-84837500D03*
X155750000Y-84837500D03*
X155250000Y-84837500D03*
X154750000Y-84837500D03*
X154250000Y-84837500D03*
X153750000Y-84837500D03*
X153250000Y-84837500D03*
X152750000Y-84837500D03*
X152250000Y-84837500D03*
%TD*%
D16*
%TO.C,C10*%
X158485000Y-95375000D03*
X157525000Y-95375000D03*
%TD*%
D21*
%TO.C,C9*%
X152020000Y-83000000D03*
X152980000Y-83000000D03*
%TD*%
D22*
%TO.C,C5*%
X151725000Y-81000000D03*
X153275000Y-81000000D03*
%TD*%
D13*
%TO.C,C7*%
X146200000Y-90260000D03*
X146200000Y-89300000D03*
%TD*%
D23*
%TO.C,D1*%
X174250000Y-96250000D03*
X174250000Y-97825000D03*
%TD*%
D24*
%TO.C,C2*%
X170600000Y-97800000D03*
X170600000Y-95900000D03*
%TD*%
D16*
%TO.C,C13*%
X148330000Y-96000000D03*
X147370000Y-96000000D03*
%TD*%
D23*
%TO.C,FB1*%
X149725000Y-94475000D03*
X149725000Y-96050000D03*
%TD*%
D14*
%TO.C,R2*%
X156500000Y-99000000D03*
X157520000Y-99000000D03*
%TD*%
D25*
%TO.C,SW1*%
X134445000Y-82750000D03*
X134445000Y-90050000D03*
X136655000Y-90050000D03*
X136655000Y-82750000D03*
D26*
X137305000Y-84150000D03*
X137305000Y-87150000D03*
X137305000Y-88650000D03*
%TD*%
D21*
%TO.C,C4*%
X152145000Y-95275000D03*
X153105000Y-95275000D03*
%TD*%
D27*
%TO.C,J4*%
X171845000Y-88905000D03*
X171845000Y-88255000D03*
X171845000Y-87605000D03*
X171845000Y-86955000D03*
X171845000Y-86305000D03*
%TD*%
D28*
%TO.C,Y1*%
X141700000Y-87150000D03*
X141700000Y-90050000D03*
X144000000Y-90050000D03*
X144000000Y-87150000D03*
%TD*%
M02*
